{"title":"Bunnicula S01E01E02 HDTV x264-W4F","uid":13449474,"size":128527019,"categoryP":"video","categoryS":"tv_shows","magnet":"?xt=urn:btih:e3c2f61210f0ee23e96164330f9bebd92209bb3d&amp;dn=Bunnicula+S01E01E02+HDTV+x264-W4F&amp;tr=udp%3A%2F%2Ftracker.leechers-paradise.org%3A6969&amp;tr=udp%3A%2F%2Fzer0day.ch%3A1337&amp;tr=udp%3A%2F%2Fopen.demonii.com%3A1337&amp;tr=udp%3A%2F%2Ftracker.coppersurfer.tk%3A6969&amp;tr=udp%3A%2F%2Fexodus.desync.com%3A6969","seeders":0,"leechers":1,"uploader":"Khoren","files":1,"time":1454783449,"description":"It is based on the children’s book series by James Howe. The show will be a dark comedy about a vampire rabbit who likes carrot juice instead of blood to strengthen up his super abilities in new paranormal adventures.\r\n0\r\n Bunnicula S01E01E02 HDTV x264-W4F\r\nseeders: 1leechers: 3updated: 11 min. ago\r\n    DOWNLOAD TORRENT\r\nAdded on 17:03 Feb 6, 2016 by  Z_akharyan6289 in TV\t\r\nTorrent verified.\tDownloaded 0 times.\r\nMAIN\r\n \r\nTECHNICAL\r\n \r\nCOMMENTS\r\n \r\nView all Bunnicula episodes\r\nEpisode title: Mumkey Business / Walking Fish\r\nEpisode: S01E01\r\nAir date: 06 February 2016\r\nOriginal run: 06 February 2016 — Present\r\nSummary:\r\nIt is based on the children’s book series by James Howe. The show will be a dark comedy about a vampire rabbit who likes carrot juice instead of blood to strengthen up his super abilities in new paranormal adventures.\r\nWritten by  Z_akharyan6289\r\n \r\n add Bunnicula to bookmarks\r\nRuntime: 30 min\r\nLanguage: English\r\nSubtitles: English\r\nGenres: Children, Comedy\r\nBunnicula S01E01E02 HDTV x264-W4F (Size: 122.57 MB)\r\n \t\tbunnicula.s01e01e02.hdtv.x264-w4f.mp4\t122.57 MB\r\nDescription\r\nimage image\r\nimage image\r\nimage image\r\n\r\n\r\nVideo\r\nID : 1\r\nFormat : AVC\r\nFormat/Info : Advanced Video Codec\r\nFormat profile :   \r\nFormat settings, CABAC : Yes\r\nFormat settings, ReFrames : 10 frames\r\nCodec ID : avc1\r\nCodec ID/Info : Advanced Video Coding\r\nDuration : 21mn 32s\r\nBit rate : 670 Kbps\r\nMaximum bit rate : 4 246 Kbps\r\nWidth : 720 pixels\r\nHeight : 404 pixels\r\nDisplay aspect ratio : 16:9\r\nFrame rate mode : Constant\r\nFrame rate : 23.976 (24000/1001) fps\r\nColor space : YUV\r\nChroma subsampling : 4:2:0\r\nBit depth : 8 bits\r\nScan type : Progressive\r\nBits/(Pixel*Frame) : 0.096\r\nStream size : 103 MiB (84%)\r\nWriting library : x264 core 148 r2665 a01e339\r\nEncoding settings : cabac=1 / ref=10 / deblock=1:1:1 / analyse=0x3:0x113 / me=umh / subme=8 / psy=1 / psy_rd=0.40:0.00 / mixed_ref=1 / me_range=16 / chroma_me=1 / trellis=1 / 8x8dct=1 / cqm=0 / deadzone=21,11 / fast_pskip=1 / chroma_qp_offset=-2 / threads=12 / lookahead_threads=3 / sliced_threads=0 / nr=0 / decimate=1 / interlaced=0 / bluray_compat=0 / constrained_intra=0 / bframes=5 / b_pyramid=2 / b_adapt=2 / b_bias=0 / direct=3 / weightb=1 / open_gop=0 / weightp=2 / keyint=250 / keyint_min=25 / scenecut=40 / intra_refresh=0 / rc_lookahead=50 / rc=crf / mbtree=1 / crf=19.0 / qcomp=0.60 / qpmin=0 / qpmax=69 / qpstep=4 / ip_ratio=1.40 / aq=1:0.60\r\nEncoded date : UTC 2016-02-06 15:34:02\r\nTagged date : UTC 2016-02-06 15:51:41\r\nColor range : Limited\r\nMatrix coefficients : BT.709\r\n\r\nAudio\r\nID : 2\r\nFormat : AAC\r\nFormat/Info : Advanced Audio Codec\r\nFormat profile : LC\r\nCodec ID : 40\r\nDuration : 21mn 32s\r\nBit rate mode : Variable\r\nBit rate : 121 Kbps\r\nMaximum bit rate : 152 Kbps\r\nChannel(s) : 2 channels\r\nChannel positions : Front: L R\r\nSampling rate : 48.0 KHz\r\nFrame rate : 46.875 fps (1024 spf)\r\nCompression mode : Lossy\r\nStream size : 18.8 MiB (15%)\r\nLanguage : English\r\nEncoded date : UTC 2016-02-06 15:51:41\r\nTagged date : UTC 2016-02-06 15:51:41\r\n\r\nText\r\nID : 3\r\nFormat : Timed Text\r\nCodec ID : tx3g\r\nDuration : 21mn 31s\r\nBit rate mode : Variable\r\nBit rate : 93 bps\r\nStream size : 14.7 KiB (0%)\r\nLanguage : English\r\nForced : No\r\nEncoded date : UTC 2016-02-06 15:34:05\r\nTagged date : UTC 2016-02-06 15:51:41","torrent":{"xt":"urn:btih:e3c2f61210f0ee23e96164330f9bebd92209bb3d","amp;dn":"Bunnicula+S01E01E02+HDTV+x264-W4F","amp;tr":["udp%3A%2F%2Ftracker.leechers-paradise.org%3A6969","udp%3A%2F%2Fzer0day.ch%3A1337","udp%3A%2F%2Fopen.demonii.com%3A1337","udp%3A%2F%2Ftracker.coppersurfer.tk%3A6969","udp%3A%2F%2Fexodus.desync.com%3A6969"],"infoHash":"e3c2f61210f0ee23e96164330f9bebd92209bb3d","infoHashBuffer":{"type":"Buffer","data":[227,194,246,18,16,240,238,35,233,97,100,51,15,155,235,217,34,9,187,61]},"announce":[],"urlList":[]}}